<svg xmlns="http://www.w3.org/2000/svg" viewBox="0 0 108 108" role="img" aria-labelledby="title desc">
  <title id="title">CoffeeSSH logo</title>
  <desc id="desc">A coffee mug containing a terminal prompt</desc>
  <rect width="108" height="108" rx="20" fill="#6F4E37"/>
  <g fill="#FFF8F4" stroke="#FFF8F4" stroke-linecap="round" stroke-linejoin="round">
    <path d="M37 40h22a3 3 0 0 1 3 3v22a3 3 0 0 1-3 3H37a3 3 0 0 1-3-3V43a3 3 0 0 1 3-3Z" stroke="none"/>
    <path d="M66.5 44a7 7 0 1 1 0 14 7 7 0 1 1 0-14Zm0 3.5a3.5 3.5 0 1 0 0 7 3.5 3.5 0 1 0 0-7Z" fill-rule="evenodd" stroke="none"/>
    <path d="M42 35c0-3 3-3 3-6M51 35c0-3 3-3 3-6" fill="none" stroke-width="2.5"/>
  </g>
  <g fill="none" stroke="#3E2412" stroke-width="3" stroke-linecap="round" stroke-linejoin="round">
    <path d="m41 48 7 5.5-7 5.5"/>
    <path d="M51 59h6"/>
  </g>
</svg>
